<?xml version="1.0" encoding="utf-8"?>
<!-- Generator: Adobe Illustrator 27.6.1, SVG Export Plug-In . SVG Version: 6.00 Build 0)  -->
<svg version="1.1" id="图层_1" xmlns="http://www.w3.org/2000/svg" xmlns:xlink="http://www.w3.org/1999/xlink" x="0px" y="0px"
	 viewBox="0 0 320 320" style="enable-background:new 0 0 320 320;" xml:space="preserve">
<path id="Combined-Shape" d="M239.3,10L310,79v182l-49.5,49h-200L10,261V79l69.7-69H239.3z M23.6,80.9L20,84.4v169.9l40,38.8V256
	h166v44h27.8l46.2-45.7V84.4L234,20H85l-8.9,8.8 M220.4,269.9l-18.1,15.2c2.1,1.8,4.8,2.9,7.8,2.9c6.6,0,12-5.4,12-12
	C222,273.8,221.4,271.7,220.4,269.9z M88.4,270l-18.1,15.2c2.1,1.7,4.8,2.8,7.7,2.8c6.6,0,12-5.4,12-12
	C90,273.8,89.4,271.8,88.4,270z M99,276c0,6.6,5.4,12,12,12c2.2,0,4.3-0.6,6.1-1.6l-15.2-18.1C100.1,270.3,99,273,99,276z M132,276
	c0,6.6,5.4,12,12,12c2.2,0,4.3-0.6,6.1-1.6l-15.2-18.1C133.1,270.3,132,273,132,276z M187.4,270l-18.1,15.2c2.1,1.7,4.8,2.8,7.7,2.8
	c6.6,0,12-5.4,12-12C189,273.8,188.4,271.8,187.4,270z M111,264c-2.2,0-4.3,0.6-6.1,1.6l15.2,18.1c1.8-2.1,2.9-4.8,2.9-7.8
	C123,269.4,117.6,264,111,264z M144,264c-2.2,0-4.3,0.6-6.1,1.6l15.2,18.1c1.8-2.1,2.9-4.8,2.9-7.8C156,269.4,150.6,264,144,264z
	 M177,264c-6.6,0-12,5.4-12,12c0,2.3,0.6,4.4,1.7,6.2l18.2-15.2C182.8,265.1,180,264,177,264z M78,264c-6.6,0-12,5.4-12,12
	c0,2.3,0.6,4.4,1.7,6.2L85.9,267C83.8,265.1,81,264,78,264z M210,264c-6.6,0-12,5.4-12,12c0,2.2,0.6,4.3,1.6,6.1l18.1-15.2
	C215.7,265.1,213,264,210,264z M228.8,33.5c6.4,0,12.6,2.5,17.2,6.9l0.3,0.3l39.7,39c4.7,4.6,7.3,10.8,7.5,17.4v0.5V221
	c0,13.7-11,24.8-24.6,25h-0.4H50.2c-13.7,0-24.8-11-25-24.6V221v-65c0-2.8,2.2-5,5-5c2.7,0,4.9,2.1,5,4.8v0.2v65
	c0,8.2,6.5,14.8,14.7,15h0.3h218.3c8.2,0,14.8-6.5,15-14.7V221V97.5c0-3.9-1.5-7.6-4.2-10.4l-0.3-0.3l-39.7-39.1
	c-2.7-2.7-6.3-4.2-10.1-4.3h-0.4H163c-2.8,0-5-2.2-5-5c0-2.7,2.1-4.9,4.8-5h0.2h65.8V33.5z M121.2,155.2c0.7,0,1.3,0.2,1.7,0.4
	c0.5,0.3,0.7,0.6,0.7,1c0,0.3-0.2,0.5-0.6,0.5c-0.2,0-0.3-0.1-0.6-0.3c-0.5-0.4-0.8-0.6-1.3-0.6c-0.7,0-1.2,0.3-1.2,0.9
	c0,0.4,0.2,0.6,0.8,0.8h0.1l1.2,0.3c1.2,0.3,1.7,0.9,1.7,1.8c0,1.3-1,2.1-2.7,2.1c-0.7,0-1.4-0.2-1.9-0.4s-0.8-0.6-0.8-1.1
	c0-0.3,0.2-0.6,0.6-0.6c0.2,0,0.3,0.1,0.6,0.3c0.5,0.4,0.9,0.6,1.5,0.6c0.8,0,1.2-0.3,1.2-0.9c0-0.4-0.3-0.7-0.8-0.8h-0.1l-1.2-0.3
	c-1.2-0.3-1.8-0.9-1.8-1.8C118.6,156,119.6,155.2,121.2,155.2z M114.6,155.2c1.7,0,2.8,1.2,2.8,2.8c0,0.7-0.2,0.9-0.6,1h-0.1h-3.6
	v0.3c0,1,0.6,1.7,1.7,1.7c0.5,0,0.9-0.2,1.3-0.4c0.3-0.3,0.4-0.3,0.7-0.3c0.3,0,0.5,0.2,0.5,0.5c0,0.2-0.2,0.5-0.4,0.7
	c-0.4,0.4-1.2,0.7-2.1,0.7c-1.8,0-3-1.1-3.1-2.8v-0.2v-1C111.7,156.4,112.9,155.2,114.6,155.2z M127.8,155.2c1.7,0,2.8,1.2,2.8,2.8
	c0,0.7-0.2,0.9-0.6,1h-0.1h-3.6v0.3c0,1,0.6,1.7,1.7,1.7c0.5,0,0.9-0.2,1.3-0.4c0.3-0.3,0.4-0.3,0.7-0.3s0.5,0.2,0.5,0.5
	c0,0.2-0.2,0.5-0.4,0.7c-0.4,0.4-1.2,0.7-2.1,0.7c-1.8,0-3-1.1-3.1-2.8v-0.2v-1C124.9,156.4,126.1,155.2,127.8,155.2z M133.3,153.6
	c0.4,0,0.6,0.2,0.7,0.6v0.1v1h0.8c0.4,0,0.6,0.2,0.6,0.6c0,0.3-0.2,0.5-0.5,0.6h-0.1H134v3.7c0,0.7,0.2,0.9,0.7,0.9
	c0.2,0,0.3,0,0.4,0c0.3,0,0.5,0.2,0.5,0.5c0,0.2-0.1,0.4-0.3,0.5s-0.5,0.2-0.9,0.2c-1.2,0-1.7-0.5-1.8-1.7v-0.2v-3.8h-0.4
	c-0.4,0-0.6-0.2-0.6-0.6c0-0.3,0.2-0.5,0.5-0.6h0.1h0.4v-1C132.6,153.9,132.8,153.6,133.3,153.6z M107.6,153.3c1.8,0,2.9,1,2.9,2.6
	c0,1-0.5,1.9-1.4,2.3l-0.2,0.1l1.3,2.5c0.1,0.1,0.1,0.3,0.1,0.5c0,0.4-0.3,0.7-0.7,0.7c-0.3,0-0.5-0.1-0.7-0.5l-0.1-0.1l-1.4-2.7
	h-1.8v2.6c0,0.5-0.3,0.8-0.7,0.8c-0.4,0-0.7-0.2-0.7-0.7v-0.1v-6.8c0-0.8,0.3-1.1,1-1.2h0.1L107.6,153.3L107.6,153.3z M114.6,156.3
	c-0.9,0-1.4,0.6-1.5,1.5v0.2l0,0h3l0,0C116.1,157,115.5,156.3,114.6,156.3z M127.9,156.3c-0.9,0-1.4,0.6-1.5,1.5v0.2l0,0h3l0,0
	C129.3,157,128.7,156.3,127.9,156.3z M107.4,154.5h-1.7v3h1.7c1.1,0,1.7-0.5,1.7-1.5S108.4,154.5,107.4,154.5z M119,130
	c5.5,0,10,4.5,10,10s-4.5,10-10,10s-10-4.5-10-10S113.5,130,119,130z M57.4,68.6 M37,84 M51.4,68.1 M83.3,42.6 M63,58 M77.3,42.1"/>
</svg>
